<svg xmlns="http://www.w3.org/2000/svg" xmlns:xlink="http://www.w3.org/1999/xlink" width="30" height="29" viewBox="0 0 30 29">
  <defs>
    <clipPath id="clip-path">
      <rect id="長方形_560" data-name="長方形 560" width="24.404" height="24.404" fill="#505050"/>
    </clipPath>
  </defs>
  <g id="グループ_632" data-name="グループ 632" transform="translate(-1807.729 -1707)">
    <rect id="長方形_561" data-name="長方形 561" width="30" height="29" rx="5" transform="translate(1807.729 1707)" fill="#d9d9d9"/>
    <g id="グループ_630" data-name="グループ 630" transform="translate(1810.662 1709.261)">
      <g id="グループ_629" data-name="グループ 629" clip-path="url(#clip-path)">
        <path id="パス_234" data-name="パス 234" d="M24.083,11.647l-6.1-3.52a.641.641,0,0,0-.962.555v1.486H14.236V7.38h1.486a.641.641,0,0,0,.555-.962l-3.52-6.1a.641.641,0,0,0-1.111,0l-3.52,6.1a.641.641,0,0,0,.555.962h1.486v2.788H7.38V8.682a.641.641,0,0,0-.962-.555l-6.1,3.52a.641.641,0,0,0,0,1.111l6.1,3.52a.641.641,0,0,0,.962-.555V14.236h2.788v2.788H8.682a.641.641,0,0,0-.555.962l3.52,6.1a.641.641,0,0,0,1.111,0l3.52-6.1a.641.641,0,0,0-.555-.962H14.236V14.236h2.788v1.486a.641.641,0,0,0,.962.555l6.1-3.52a.641.641,0,0,0,0-1.111" transform="translate(0 0)" fill="#505050"/>
      </g>
    </g>
  </g>
</svg>
