<svg id="コンポーネント_15_2" data-name="コンポーネント 15 – 2" xmlns="http://www.w3.org/2000/svg" xmlns:xlink="http://www.w3.org/1999/xlink" width="32" height="30" viewBox="0 0 32 30">
  <defs>
    <clipPath id="clip-path">
      <rect id="長方形_558" data-name="長方形 558" width="20" height="23" transform="translate(-0.462 -0.5)" fill="#fff"/>
    </clipPath>
  </defs>
  <rect id="長方形_559" data-name="長方形 559" width="32" height="30" rx="3" fill="#bf9d6d"/>
  <g id="グループ_624" data-name="グループ 624" transform="translate(6.462 3.5)">
    <g id="グループ_623" data-name="グループ 623" clip-path="url(#clip-path)">
      <path id="パス_233" data-name="パス 233" d="M2.314,23.142a2.233,2.233,0,0,1-1.635-.679A2.233,2.233,0,0,1,0,20.828V4.628A2.233,2.233,0,0,1,.679,2.993a2.233,2.233,0,0,1,1.635-.679H3.471V0H5.786V2.314h9.257V0h2.314V2.314h1.157a2.233,2.233,0,0,1,1.635.679,2.233,2.233,0,0,1,.679,1.635v16.2a2.319,2.319,0,0,1-2.314,2.314Zm0-2.314h16.2V9.257H2.314Zm0-13.885h16.2V4.628H2.314Zm0,0v0Zm8.1,6.943a1.138,1.138,0,1,1,.824-.333,1.117,1.117,0,0,1-.824.333m-4.628,0A1.157,1.157,0,1,1,6.609,11.9a1.157,1.157,0,0,1-.824,1.981m9.257,0a1.138,1.138,0,1,1,.824-.333,1.117,1.117,0,0,1-.824.333m-4.628,4.628a1.138,1.138,0,1,1,.824-.333,1.117,1.117,0,0,1-.824.333m-4.628,0a1.157,1.157,0,1,1,.824-1.981,1.157,1.157,0,0,1-.824,1.981m9.257,0a1.138,1.138,0,1,1,.824-.333,1.117,1.117,0,0,1-.824.333" transform="translate(-0.937 -0.231)" fill="#fff"/>
    </g>
  </g>
</svg>
