<svg xmlns="http://www.w3.org/2000/svg" xmlns:xlink="http://www.w3.org/1999/xlink" width="385.216" height="86.913" viewBox="0 0 385.216 86.913">
  <defs>
    <clipPath id="clip-path">
      <rect id="長方形_3" data-name="長方形 3" width="87.066" height="86.913" fill="none"/>
    </clipPath>
    <clipPath id="clip-path-2">
      <rect id="長方形_4" data-name="長方形 4" width="271.733" height="39.476" transform="translate(0 0)" fill="none"/>
    </clipPath>
  </defs>
  <g id="グループ_112" data-name="グループ 112" transform="translate(-737.558 -244)">
    <g id="グループ_2" data-name="グループ 2" transform="translate(737.558 244)">
      <g id="グループ_1" data-name="グループ 1" clip-path="url(#clip-path)">
        <path id="パス_1" data-name="パス 1" d="M116.5,96.331,66.776,65.5,116.6,34.976c17.2,16.746,16.89,44.977-.092,61.355" transform="translate(-42.301 -22.157)" fill="#004098"/>
        <path id="パス_2" data-name="パス 2" d="M108.4,157.2c-12.589,12.412-34.96,16.431-52.818,5.058.56-10.8,1.123-21.676,1.7-32.73L108.4,157.2" transform="translate(-35.211 -82.051)" fill="#004098"/>
        <path id="パス_3" data-name="パス 3" d="M58.024,39.094c-.038-.479-.074-.79-.087-1.1q-.379-9.578-.755-19.156c-.149-3.661-.323-7.321-.485-10.982-.011-.264.005-.53-.028-.791a.9.9,0,0,1,.537-.983,43.385,43.385,0,0,1,6.718-3.247,43.892,43.892,0,0,1,9.342-2.4A43.268,43.268,0,0,1,86.227.546a42.54,42.54,0,0,1,13.295,4.38A44.333,44.333,0,0,1,108.8,11.4c.124.113.234.243.449.47L58.024,39.094" transform="translate(-35.892 0)" fill="#004098"/>
        <path id="パス_4" data-name="パス 4" d="M4.395,136.982,20,129.57c.45,10.548.894,20.92,1.347,31.515a40.655,40.655,0,0,1-7.525-6.655,41.9,41.9,0,0,1-9.427-17.448" transform="translate(-2.784 -82.08)" fill="#009b63"/>
        <path id="パス_5" data-name="パス 5" d="M4.442,45.017A43.627,43.627,0,0,1,21.552,21.1c.219.875-1.37,30.273-1.679,31.254L4.442,45.017" transform="translate(-2.814 -13.367)" fill="#009b63"/>
        <path id="パス_6" data-name="パス 6" d="M1.093,92.124l13.7,9.544L.988,111a43.4,43.4,0,0,1,.105-18.88" transform="translate(0 -58.359)" fill="#009b63"/>
      </g>
    </g>
    <g id="グループ_4" data-name="グループ 4" transform="translate(851.042 268)">
      <g id="グループ_3" data-name="グループ 3" transform="translate(0 0)" clip-path="url(#clip-path-2)">
        <path id="パス_7" data-name="パス 7" d="M149.3,38.273h-14.09V13.288s-6.972,16.517-10.178,24.975H114.706c-3.126-8.3-9.836-24.922-10.048-24.886v25H90.327L90.3.887H113.03l6.738,17.3L126.72.887H149.3Z" transform="translate(13.303 0.131)"/>
        <path id="パス_8" data-name="パス 8" d="M228.532,19.25V.887l14.26.006.033,37.38h-14.24L210.513,19.211V38.272H196.474L196.229.887h14.284S228.355,19.33,228.532,19.25" transform="translate(28.908 0.131)"/>
        <path id="パス_9" data-name="パス 9" d="M181.86.5c10.13,1.677,16.169,8.687,15.809,19.811-.341,10.513-6.349,16.93-16.864,18.355a60.572,60.572,0,0,1-18.087-.132c-7.326-1.213-12.9-4.883-14.962-12.381-1.937-7.04-1.436-13.87,3.478-19.733C154.888,2.055,159.971.545,165.408.1c2.274-.188,13.3-.122,16.453.4m.422,19.475c-.1-1.374-.133-2.108-.219-2.833-.533-4.5-3.183-7.431-7.653-8.059a15.592,15.592,0,0,0-5.418.249c-4.36.967-6.692,4.557-6.8,10.01-.106,5.142,2.194,8.967,6.269,10.166a13.21,13.21,0,0,0,7.836-.11,7.583,7.583,0,0,0,5.283-5.477,36.249,36.249,0,0,0,.706-3.947" transform="translate(21.612 0.001)"/>
        <path id="パス_10" data-name="パス 10" d="M32.252,12.788l18,25.465-17.509-.014-11.765-15.5L14.175,28.65l-.181,9.55H0V.892l14.08,0V13.541C15.014,12.925,29.262.925,29.262.925L45.587.864Z" transform="translate(0 0.128)"/>
        <path id="パス_11" data-name="パス 11" d="M74.773.876H89.606s-.079,16.855-.159,23.916c-.092,8-3.635,12.2-11.536,13.6a66.035,66.035,0,0,1-22.175.044,20.142,20.142,0,0,1-5.227-1.62,10.478,10.478,0,0,1-6.525-9.444c-.21-4.76-.179-9.532-.215-14.3C43.737,9.047,43.762.89,43.762.89L58.372.877s.192,13.949.2,19.361c0,.641,0,1.284.011,1.926.1,4.216,1.122,6.056,4.354,7.077C66.613,30.4,70.2,30.309,73.212,27.45c1.368-1.3,1.556-3.043,1.553-4.829-.007-6.237.008-21.745.008-21.745" transform="translate(6.445 0.13)"/>
      </g>
    </g>
  </g>
</svg>
